<svg xmlns="http://www.w3.org/2000/svg" version="1.1" xmlns:xlink="http://www.w3.org/1999/xlink"
     xmlns:svgjs="http://svgjs.com/svgjs" width="1920" height="1280" preserveAspectRatio="none" viewBox="0 0 1920 1280">
  <g mask="url(&quot;#SvgjsMask1580&quot;)" fill="none">
    <rect width="1920" height="1280" x="0" y="0" fill="url(#SvgjsLinearGradient1581)"></rect>
    <path
      d="M57.6 265.56L167.59 329.06L167.59 456.06L57.6 519.56L-52.39 456.06L-52.39 329.06zM387.57 456.06L497.55 519.56L497.55 646.56L387.57 710.06L277.58 646.56L277.58 519.56zM277.58 646.56L387.57 710.06L387.57 837.06L277.58 900.56L167.59 837.06L167.59 710.06zM387.57 1218.06L497.55 1281.56L497.55 1408.56L387.57 1472.06L277.58 1408.56L277.58 1281.56zM497.55 -115.44L607.54 -51.94L607.54 75.06L497.55 138.56L387.57 75.06L387.57 -51.94zM497.55 646.56L607.54 710.06L607.54 837.06L497.55 900.56L387.57 837.06L387.57 710.06zM607.54 837.06L717.53 900.56L717.53 1027.56L607.54 1091.06L497.55 1027.56L497.55 900.56zM497.55 1027.56L607.54 1091.06L607.54 1218.06L497.55 1281.56L387.57 1218.06L387.57 1091.06zM1047.5 456.06L1157.48 519.56L1157.48 646.56L1047.5 710.06L937.51 646.56L937.51 519.56zM1157.48 265.56L1267.47 329.06L1267.47 456.06L1157.48 519.56L1047.5 456.06L1047.5 329.06zM1157.48 1027.56L1267.47 1091.06L1267.47 1218.06L1157.48 1281.56L1047.5 1218.06L1047.5 1091.06zM1377.46 265.56L1487.45 329.06L1487.45 456.06L1377.46 519.56L1267.47 456.06L1267.47 329.06zM1487.45 456.06L1597.44 519.56L1597.44 646.56L1487.45 710.06L1377.46 646.56L1377.46 519.56zM1377.46 646.56L1487.45 710.06L1487.45 837.06L1377.46 900.56L1267.47 837.06L1267.47 710.06zM1707.43 456.06L1817.41 519.56L1817.41 646.56L1707.43 710.06L1597.44 646.56L1597.44 519.56zM1927.4 456.06L2037.39 519.56L2037.39 646.56L1927.4 710.06L1817.41 646.56L1817.41 519.56zM1817.41 646.56L1927.4 710.06L1927.4 837.06L1817.41 900.56L1707.43 837.06L1707.43 710.06z"
      stroke="#03305d" stroke-width="2"></path>
    <path
      d="M44.9 265.56 a12.7 12.7 0 1 0 25.4 0 a12.7 12.7 0 1 0 -25.4 0zM154.89 329.06 a12.7 12.7 0 1 0 25.4 0 a12.7 12.7 0 1 0 -25.4 0zM154.89 456.06 a12.7 12.7 0 1 0 25.4 0 a12.7 12.7 0 1 0 -25.4 0zM44.9 519.56 a12.7 12.7 0 1 0 25.4 0 a12.7 12.7 0 1 0 -25.4 0zM-65.09 456.06 a12.7 12.7 0 1 0 25.4 0 a12.7 12.7 0 1 0 -25.4 0zM-65.09 329.06 a12.7 12.7 0 1 0 25.4 0 a12.7 12.7 0 1 0 -25.4 0zM374.87 456.06 a12.7 12.7 0 1 0 25.4 0 a12.7 12.7 0 1 0 -25.4 0zM484.85 519.56 a12.7 12.7 0 1 0 25.4 0 a12.7 12.7 0 1 0 -25.4 0zM484.85 646.56 a12.7 12.7 0 1 0 25.4 0 a12.7 12.7 0 1 0 -25.4 0zM374.87 710.06 a12.7 12.7 0 1 0 25.4 0 a12.7 12.7 0 1 0 -25.4 0zM264.88 646.56 a12.7 12.7 0 1 0 25.4 0 a12.7 12.7 0 1 0 -25.4 0zM264.88 519.56 a12.7 12.7 0 1 0 25.4 0 a12.7 12.7 0 1 0 -25.4 0zM374.87 837.06 a12.7 12.7 0 1 0 25.4 0 a12.7 12.7 0 1 0 -25.4 0zM264.88 900.56 a12.7 12.7 0 1 0 25.4 0 a12.7 12.7 0 1 0 -25.4 0zM154.89 837.06 a12.7 12.7 0 1 0 25.4 0 a12.7 12.7 0 1 0 -25.4 0zM154.89 710.06 a12.7 12.7 0 1 0 25.4 0 a12.7 12.7 0 1 0 -25.4 0zM374.87 1218.06 a12.7 12.7 0 1 0 25.4 0 a12.7 12.7 0 1 0 -25.4 0zM484.85 1281.56 a12.7 12.7 0 1 0 25.4 0 a12.7 12.7 0 1 0 -25.4 0zM484.85 1408.56 a12.7 12.7 0 1 0 25.4 0 a12.7 12.7 0 1 0 -25.4 0zM374.87 1472.06 a12.7 12.7 0 1 0 25.4 0 a12.7 12.7 0 1 0 -25.4 0zM264.88 1408.56 a12.7 12.7 0 1 0 25.4 0 a12.7 12.7 0 1 0 -25.4 0zM264.88 1281.56 a12.7 12.7 0 1 0 25.4 0 a12.7 12.7 0 1 0 -25.4 0zM484.85 -115.44 a12.7 12.7 0 1 0 25.4 0 a12.7 12.7 0 1 0 -25.4 0zM594.84 -51.94 a12.7 12.7 0 1 0 25.4 0 a12.7 12.7 0 1 0 -25.4 0zM594.84 75.06 a12.7 12.7 0 1 0 25.4 0 a12.7 12.7 0 1 0 -25.4 0zM484.85 138.56 a12.7 12.7 0 1 0 25.4 0 a12.7 12.7 0 1 0 -25.4 0zM374.87 75.06 a12.7 12.7 0 1 0 25.4 0 a12.7 12.7 0 1 0 -25.4 0zM374.87 -51.94 a12.7 12.7 0 1 0 25.4 0 a12.7 12.7 0 1 0 -25.4 0zM594.84 710.06 a12.7 12.7 0 1 0 25.4 0 a12.7 12.7 0 1 0 -25.4 0zM594.84 837.06 a12.7 12.7 0 1 0 25.4 0 a12.7 12.7 0 1 0 -25.4 0zM484.85 900.56 a12.7 12.7 0 1 0 25.4 0 a12.7 12.7 0 1 0 -25.4 0zM704.83 900.56 a12.7 12.7 0 1 0 25.4 0 a12.7 12.7 0 1 0 -25.4 0zM704.83 1027.56 a12.7 12.7 0 1 0 25.4 0 a12.7 12.7 0 1 0 -25.4 0zM594.84 1091.06 a12.7 12.7 0 1 0 25.4 0 a12.7 12.7 0 1 0 -25.4 0zM484.85 1027.56 a12.7 12.7 0 1 0 25.4 0 a12.7 12.7 0 1 0 -25.4 0zM594.84 1218.06 a12.7 12.7 0 1 0 25.4 0 a12.7 12.7 0 1 0 -25.4 0zM374.87 1091.06 a12.7 12.7 0 1 0 25.4 0 a12.7 12.7 0 1 0 -25.4 0zM1034.8 456.06 a12.7 12.7 0 1 0 25.4 0 a12.7 12.7 0 1 0 -25.4 0zM1144.78 519.56 a12.7 12.7 0 1 0 25.4 0 a12.7 12.7 0 1 0 -25.4 0zM1144.78 646.56 a12.7 12.7 0 1 0 25.4 0 a12.7 12.7 0 1 0 -25.4 0zM1034.8 710.06 a12.7 12.7 0 1 0 25.4 0 a12.7 12.7 0 1 0 -25.4 0zM924.81 646.56 a12.7 12.7 0 1 0 25.4 0 a12.7 12.7 0 1 0 -25.4 0zM924.81 519.56 a12.7 12.7 0 1 0 25.4 0 a12.7 12.7 0 1 0 -25.4 0zM1144.78 265.56 a12.7 12.7 0 1 0 25.4 0 a12.7 12.7 0 1 0 -25.4 0zM1254.77 329.06 a12.7 12.7 0 1 0 25.4 0 a12.7 12.7 0 1 0 -25.4 0zM1254.77 456.06 a12.7 12.7 0 1 0 25.4 0 a12.7 12.7 0 1 0 -25.4 0zM1034.8 329.06 a12.7 12.7 0 1 0 25.4 0 a12.7 12.7 0 1 0 -25.4 0zM1144.78 1027.56 a12.7 12.7 0 1 0 25.4 0 a12.7 12.7 0 1 0 -25.4 0zM1254.77 1091.06 a12.7 12.7 0 1 0 25.4 0 a12.7 12.7 0 1 0 -25.4 0zM1254.77 1218.06 a12.7 12.7 0 1 0 25.4 0 a12.7 12.7 0 1 0 -25.4 0zM1144.78 1281.56 a12.7 12.7 0 1 0 25.4 0 a12.7 12.7 0 1 0 -25.4 0zM1034.8 1218.06 a12.7 12.7 0 1 0 25.4 0 a12.7 12.7 0 1 0 -25.4 0zM1034.8 1091.06 a12.7 12.7 0 1 0 25.4 0 a12.7 12.7 0 1 0 -25.4 0zM1364.76 265.56 a12.7 12.7 0 1 0 25.4 0 a12.7 12.7 0 1 0 -25.4 0zM1474.75 329.06 a12.7 12.7 0 1 0 25.4 0 a12.7 12.7 0 1 0 -25.4 0zM1474.75 456.06 a12.7 12.7 0 1 0 25.4 0 a12.7 12.7 0 1 0 -25.4 0zM1364.76 519.56 a12.7 12.7 0 1 0 25.4 0 a12.7 12.7 0 1 0 -25.4 0zM1584.74 519.56 a12.7 12.7 0 1 0 25.4 0 a12.7 12.7 0 1 0 -25.4 0zM1584.74 646.56 a12.7 12.7 0 1 0 25.4 0 a12.7 12.7 0 1 0 -25.4 0zM1474.75 710.06 a12.7 12.7 0 1 0 25.4 0 a12.7 12.7 0 1 0 -25.4 0zM1364.76 646.56 a12.7 12.7 0 1 0 25.4 0 a12.7 12.7 0 1 0 -25.4 0zM1474.75 837.06 a12.7 12.7 0 1 0 25.4 0 a12.7 12.7 0 1 0 -25.4 0zM1364.76 900.56 a12.7 12.7 0 1 0 25.4 0 a12.7 12.7 0 1 0 -25.4 0zM1254.77 837.06 a12.7 12.7 0 1 0 25.4 0 a12.7 12.7 0 1 0 -25.4 0zM1254.77 710.06 a12.7 12.7 0 1 0 25.4 0 a12.7 12.7 0 1 0 -25.4 0zM1694.73 456.06 a12.7 12.7 0 1 0 25.4 0 a12.7 12.7 0 1 0 -25.4 0zM1804.71 519.56 a12.7 12.7 0 1 0 25.4 0 a12.7 12.7 0 1 0 -25.4 0zM1804.71 646.56 a12.7 12.7 0 1 0 25.4 0 a12.7 12.7 0 1 0 -25.4 0zM1694.73 710.06 a12.7 12.7 0 1 0 25.4 0 a12.7 12.7 0 1 0 -25.4 0zM1914.7 456.06 a12.7 12.7 0 1 0 25.4 0 a12.7 12.7 0 1 0 -25.4 0zM2024.69 519.56 a12.7 12.7 0 1 0 25.4 0 a12.7 12.7 0 1 0 -25.4 0zM2024.69 646.56 a12.7 12.7 0 1 0 25.4 0 a12.7 12.7 0 1 0 -25.4 0zM1914.7 710.06 a12.7 12.7 0 1 0 25.4 0 a12.7 12.7 0 1 0 -25.4 0zM1914.7 837.06 a12.7 12.7 0 1 0 25.4 0 a12.7 12.7 0 1 0 -25.4 0zM1804.71 900.56 a12.7 12.7 0 1 0 25.4 0 a12.7 12.7 0 1 0 -25.4 0zM1694.73 837.06 a12.7 12.7 0 1 0 25.4 0 a12.7 12.7 0 1 0 -25.4 0z"
      fill="#03305d"></path>
    <path
      d="M21.26 -45.19L70.62 -16.69L70.62 40.31L21.26 68.81L-28.1 40.31L-28.1 -16.69zM70.62 40.31L119.99 68.81L119.99 125.81L70.62 154.31L21.26 125.81L21.26 68.81zM21.26 980.81L70.62 1009.31L70.62 1066.31L21.26 1094.81L-28.1 1066.31L-28.1 1009.31zM169.35 553.31L218.72 581.81L218.72 638.81L169.35 667.31L119.99 638.81L119.99 581.81zM169.35 895.31L218.72 923.81L218.72 980.81L169.35 1009.31L119.99 980.81L119.99 923.81zM268.08 724.31L317.45 752.81L317.45 809.81L268.08 838.31L218.72 809.81L218.72 752.81zM317.45 1151.81L366.81 1180.31L366.81 1237.31L317.45 1265.81L268.08 1237.31L268.08 1180.31zM416.18 -45.19L465.54 -16.69L465.54 40.31L416.18 68.81L366.81 40.31L366.81 -16.69zM514.91 638.81L564.27 667.31L564.27 724.31L514.91 752.81L465.54 724.31L465.54 667.31zM564.27 1237.31L613.64 1265.81L613.64 1322.81L564.27 1351.31L514.91 1322.81L514.91 1265.81zM663 40.31L712.37 68.81L712.37 125.81L663 154.31L613.64 125.81L613.64 68.81zM663 211.31L712.37 239.81L712.37 296.81L663 325.31L613.64 296.81L613.64 239.81zM712.37 467.81L761.73 496.31L761.73 553.31L712.37 581.81L663 553.31L663 496.31zM712.37 638.81L761.73 667.31L761.73 724.31L712.37 752.81L663 724.31L663 667.31zM761.73 1066.31L811.1 1094.81L811.1 1151.81L761.73 1180.31L712.37 1151.81L712.37 1094.81zM811.1 -45.19L860.46 -16.69L860.46 40.31L811.1 68.81L761.73 40.31L761.73 -16.69zM811.1 467.81L860.46 496.31L860.46 553.31L811.1 581.81L761.73 553.31L761.73 496.31zM1057.92 211.31L1107.29 239.81L1107.29 296.81L1057.92 325.31L1008.56 296.81L1008.56 239.81zM1008.56 296.81L1057.92 325.31L1057.92 382.31L1008.56 410.81L959.19 382.31L959.19 325.31zM1057.92 1237.31L1107.29 1265.81L1107.29 1322.81L1057.92 1351.31L1008.56 1322.81L1008.56 1265.81zM1156.65 211.31L1206.02 239.81L1206.02 296.81L1156.65 325.31L1107.29 296.81L1107.29 239.81zM1206.02 -45.19L1255.38 -16.69L1255.38 40.31L1206.02 68.81L1156.65 40.31L1156.65 -16.69zM1255.38 553.31L1304.75 581.81L1304.75 638.81L1255.38 667.31L1206.02 638.81L1206.02 581.81zM1354.11 40.31L1403.48 68.81L1403.48 125.81L1354.11 154.31L1304.75 125.81L1304.75 68.81zM1403.48 -45.19L1452.84 -16.69L1452.84 40.31L1403.48 68.81L1354.11 40.31L1354.11 -16.69zM1452.84 40.31L1502.21 68.81L1502.21 125.81L1452.84 154.31L1403.48 125.81L1403.48 68.81zM1452.84 1066.31L1502.21 1094.81L1502.21 1151.81L1452.84 1180.31L1403.48 1151.81L1403.48 1094.81zM1551.57 382.31L1600.94 410.81L1600.94 467.81L1551.57 496.31L1502.21 467.81L1502.21 410.81zM1502.21 1151.81L1551.57 1180.31L1551.57 1237.31L1502.21 1265.81L1452.84 1237.31L1452.84 1180.31zM1551.57 1237.31L1600.94 1265.81L1600.94 1322.81L1551.57 1351.31L1502.21 1322.81L1502.21 1265.81zM1600.94 125.81L1650.3 154.31L1650.3 211.31L1600.94 239.81L1551.57 211.31L1551.57 154.31zM1650.3 553.31L1699.66 581.81L1699.66 638.81L1650.3 667.31L1600.94 638.81L1600.94 581.81zM1600.94 980.81L1650.3 1009.31L1650.3 1066.31L1600.94 1094.81L1551.57 1066.31L1551.57 1009.31zM1650.3 1066.31L1699.66 1094.81L1699.66 1151.81L1650.3 1180.31L1600.94 1151.81L1600.94 1094.81zM1600.94 1151.81L1650.3 1180.31L1650.3 1237.31L1600.94 1265.81L1551.57 1237.31L1551.57 1180.31zM1699.66 125.81L1749.03 154.31L1749.03 211.31L1699.66 239.81L1650.3 211.31L1650.3 154.31zM1798.39 -45.19L1847.76 -16.69L1847.76 40.31L1798.39 68.81L1749.03 40.31L1749.03 -16.69zM1798.39 125.81L1847.76 154.31L1847.76 211.31L1798.39 239.81L1749.03 211.31L1749.03 154.31zM1798.39 638.81L1847.76 667.31L1847.76 724.31L1798.39 752.81L1749.03 724.31L1749.03 667.31zM1847.76 1066.31L1897.12 1094.81L1897.12 1151.81L1847.76 1180.31L1798.39 1151.81L1798.39 1094.81zM1897.12 -45.19L1946.49 -16.69L1946.49 40.31L1897.12 68.81L1847.76 40.31L1847.76 -16.69zM1897.12 296.81L1946.49 325.31L1946.49 382.31L1897.12 410.81L1847.76 382.31L1847.76 325.31zM1946.49 724.31L1995.85 752.81L1995.85 809.81L1946.49 838.31L1897.12 809.81L1897.12 752.81z"
      stroke="rgba(6, 80, 156, 0.93)" stroke-width="2"></path>
  </g>
  <defs>
    <mask id="SvgjsMask1580">
      <rect width="1920" height="1280" fill="#ffffff"></rect>
    </mask>
    <linearGradient x1="8.33%" y1="-12.5%" x2="91.67%" y2="112.5%" gradientUnits="userSpaceOnUse"
                    id="SvgjsLinearGradient1581">
      <stop stop-color="rgba(0, 61, 110, 1)" offset="0.36"></stop>
      <stop stop-color="rgba(0, 35, 65, 1)" offset="1"></stop>
    </linearGradient>
  </defs>
</svg>
