<?xml version="1.0" encoding="utf-8"?>
<!-- Generator: Adobe Illustrator 24.2.0, SVG Export Plug-In . SVG Version: 6.00 Build 0)  -->
<svg version="1.1" id="Layer_1" xmlns="http://www.w3.org/2000/svg" xmlns:xlink="http://www.w3.org/1999/xlink" x="0px" y="0px"
	 viewBox="0 0 44 44" style="enable-background:new 0 0 44 44;" xml:space="preserve">
<style type="text/css">
	.st0{fill:#FFFFFF;}
</style>
<g transform="translate(0 0)">
	<path class="st0" d="M43.9,21.6c0.2,11.9-9.3,21.8-21.2,22.1c-12.1,0.4-22.2-9-22.6-21.1c-0.3-12,9.3-22,21.3-22.3
		c0.1,0,0.2,0,0.3,0C33.7,0.1,43.6,9.6,43.9,21.6z M16,25.1c1.7-1.4,2-4,0.6-5.7c0-0.1-0.1-0.1-0.1-0.2c-1.8-1.9-3.6-3.6-5.4-5.5
		c-0.3-0.3-0.5-0.6-0.7-0.8c-1,0.9-2,1.8-2.9,2.8C6.1,17.4,6.3,20,8,21.4l1.8-1.7c-1-1.3-0.8-2.2,0.5-3.1c1.5,1.5,3,2.9,4.5,4.4
		c0.1,0.1,0.1,0.2,0.1,0.3c0.3,0.7,0.1,1.6-0.5,2L16,25.1z M33.8,27.4c-1.5-1.4-2.9-2.9-4.4-4.4c-0.2-0.3-0.4-0.6-0.3-1
		c0.1-0.5,0.3-1,0.5-1.5l-1.7-1.7c0,0-0.1,0.1-0.2,0.2c-1.6,1.6-1.6,4.3,0,5.9c0.1,0.1,0.1,0.1,0.2,0.2c1.9,1.9,3.8,3.7,5.6,5.6
		c0.1,0.1,0.2,0.2,0.3,0.2c0.9-0.9,1.9-1.7,2.7-2.7c0.4-0.4,0.6-0.9,0.8-1.4c0.6-1.6,0.1-3.3-1.2-4.4l-1.7,1.7
		C35.3,25.6,35.2,26.3,33.8,27.4L33.8,27.4z M22.4,8.1C22.7,8.4,23,8.7,23.3,9s0.6,0.6,0.8,0.9c1.3-1.1,2.2-1,3.3,0.4
		c-0.1,0.1-0.2,0.3-0.4,0.4c-1.2,1.2-2.4,2.3-3.5,3.5c-1.1,1.1-1.7,1.1-2.8,0.2l-1.8,1.8c1.6,1.7,4.2,1.9,6,0.3l0.1-0.1
		c2-1.9,3.9-3.9,5.9-5.9c0.1-0.1,0.1-0.2,0.2-0.3c-0.8-0.8-1.6-1.6-2.4-2.4c-1.7-1.6-4.3-1.6-6,0C22.6,7.9,22.5,8,22.4,8.1z
		 M25.1,27.8c-1.5-1.7-4.1-1.9-5.9-0.4l0,0c-1.3,1.2-2.5,2.4-3.7,3.6c-0.9,0.9-1.7,1.7-2.6,2.6c0.9,0.9,1.8,1.9,2.7,2.8
		c0.9,0.8,2.2,1.2,3.4,0.9c1-0.1,1.8-0.6,2.5-1.4c-0.6-0.5-1.1-1-1.6-1.6c-0.1-0.1-0.1-0.1-0.2-0.2c-1.4,1-2.3,0.8-3.2-0.5
		c1.4-1.4,2.8-2.8,4.3-4.3c0.4-0.4,1-0.5,1.5-0.4c0.4,0.1,0.7,0.3,1,0.6L25.1,27.8z M27.5,33.7c-1.2,1.5-2.3,1.6-3.5,0.3
		c-1-1.1-2-2.1-3.1-3.1c-0.1-0.1-0.2-0.2-0.3-0.3L19,32.2c1.4,1.5,2.7,3,4.2,4.4c1.4,1.1,3.3,1.2,4.7,0.2c1.1-0.9,2.2-1.9,3.2-2.9
		l-3.2-3.1l-1.8,1.8L27.5,33.7z M25.1,11.7c-1.4-1.4-2.7-2.8-4.1-4.1s-3.6-1.4-5.1-0.2c-1.1,0.8-2,1.9-3,2.8l3.2,3.2l1.8-1.8
		c-0.2-0.2-0.4-0.4-0.7-0.6s-0.5-0.4-0.9-0.6c0.3-0.3,0.5-0.4,0.6-0.5c0.6-0.7,1.7-0.9,2.4-0.3c0.1,0.1,0.2,0.2,0.3,0.3
		c0.4,0.4,0.8,0.8,1.2,1.2l2.4,2.4L25.1,11.7z M32.3,25.1c1.5-1.4,3-2.7,4.3-4.2c1.3-1.5,1.3-3.8,0-5.3c-0.9-1-1.8-1.8-2.7-2.6
		l-3.1,3.1l1.8,1.8l1.3-1.4c0.2,0.2,0.3,0.4,0.4,0.5c0.7,0.6,0.9,1.6,0.3,2.3c-0.1,0.1-0.2,0.2-0.3,0.3c-0.4,0.4-0.8,0.8-1.2,1.2
		l-2.5,2.5c0.1,0.1,0.1,0.2,0.2,0.2C31.3,24.1,31.8,24.6,32.3,25.1L32.3,25.1z M10.2,27.5C10,27.3,9.9,27.1,9.7,27
		c-0.8-0.5-0.9-1.6-0.4-2.4c0.1-0.2,0.2-0.3,0.4-0.4c0.9-0.9,1.8-1.8,2.7-2.6c0.3-0.3,0.7-0.6,0.9-0.9l-1.9-1.8
		c-1.2,1.2-2.5,2.5-3.8,3.7C6.3,24,6,26.2,7.2,27.8C8.1,28.9,9,30,10.1,31l3.1-3.1l-1.8-1.7L10.2,27.5z M17.7,27.9l-5.3-5.3
		l-1.7,1.6l5.4,5.3L17.7,27.9z M24.2,33.2l5.4-5.4L28,26.2l-5.4,5.4L24.2,33.2z M19.8,10.8l-5.5,5.4l1.6,1.6l5.5-5.4L19.8,10.8z
		 M26.2,16.1l5.3,5.3l1.6-1.6l-5.3-5.3L26.2,16.1z"/>
</g>
</svg>
