<?xml version="1.0" encoding="UTF-8" standalone="no"?>
<svg
   xmlns:dc="http://purl.org/dc/elements/1.1/"
   xmlns:cc="http://creativecommons.org/ns#"
   xmlns:rdf="http://www.w3.org/1999/02/22-rdf-syntax-ns#"
   xmlns:svg="http://www.w3.org/2000/svg"
   xmlns="http://www.w3.org/2000/svg"
   xmlns:xlink="http://www.w3.org/1999/xlink"
   xml:space="preserve"
   style="enable-background:new 0 0 44 44;"
   viewBox="0 0 44 44"
   y="0px"
   x="0px"
   id="Layer_1"
   version="1.1"><metadata
   id="metadata13"><rdf:RDF><cc:Work
       rdf:about=""><dc:format>image/svg+xml</dc:format><dc:type
         rdf:resource="http://purl.org/dc/dcmitype/StillImage" /><dc:title></dc:title></cc:Work></rdf:RDF></metadata><defs
   id="defs11"><linearGradient
   id="linearGradient856-5"><stop
     id="stop852"
     offset="0"
     style="stop-color:#c0392b;stop-opacity:1;" /><stop
     style="stop-color:#7b1fa2;stop-opacity:1"
     offset="0.42233276"
     id="stop869" /><stop
     id="stop854"
     offset="1"
     style="stop-color:#c0392b;stop-opacity:1" /></linearGradient>
	
<linearGradient
   y2="11.905086"
   x2="56.577965"
   y1="22.74576"
   x1="-0.37288067"
   gradientUnits="userSpaceOnUse"
   id="linearGradient871"
   xlink:href="#linearGradient856-5" /></defs>
<style
   id="style2"
   type="text/css">
	.st0{fill:#FFFFFF;}
</style>
<path
   class="st0"
   d="M 43.9,21.6 C 44.1,33.5 34.6,43.4 22.7,43.7 10.6,44.1 0.5,34.7 0.1,22.6 -0.2,10.6 9.4,0.6 21.4,0.3 c 0.1,0 0.2,0 0.3,0 12,-0.2 21.9,9.3 22.2,21.3 z M 16,25.1 c 1.7,-1.4 2,-4 0.6,-5.7 0,-0.1 -0.1,-0.1 -0.1,-0.2 -1.8,-1.9 -3.6,-3.6 -5.4,-5.5 -0.3,-0.3 -0.5,-0.6 -0.7,-0.8 -1,0.9 -2,1.8 -2.9,2.8 C 6.1,17.4 6.3,20 8,21.4 l 1.8,-1.7 c -1,-1.3 -0.8,-2.2 0.5,-3.1 1.5,1.5 3,2.9 4.5,4.4 0.1,0.1 0.1,0.2 0.1,0.3 0.3,0.7 0.1,1.6 -0.5,2 z m 17.8,2.3 C 32.3,26 30.9,24.5 29.4,23 29.2,22.7 29,22.4 29.1,22 c 0.1,-0.5 0.3,-1 0.5,-1.5 l -1.7,-1.7 c 0,0 -0.1,0.1 -0.2,0.2 -1.6,1.6 -1.6,4.3 0,5.9 0.1,0.1 0.1,0.1 0.2,0.2 1.9,1.9 3.8,3.7 5.6,5.6 0.1,0.1 0.2,0.2 0.3,0.2 0.9,-0.9 1.9,-1.7 2.7,-2.7 0.4,-0.4 0.6,-0.9 0.8,-1.4 0.6,-1.6 0.1,-3.3 -1.2,-4.4 l -1.7,1.7 c 0.9,1.5 0.8,2.2 -0.6,3.3 z M 22.4,8.1 c 0.3,0.3 0.6,0.6 0.9,0.9 0.3,0.3 0.6,0.6 0.8,0.9 1.3,-1.1 2.2,-1 3.3,0.4 -0.1,0.1 -0.2,0.3 -0.4,0.4 -1.2,1.2 -2.4,2.3 -3.5,3.5 -1.1,1.1 -1.7,1.1 -2.8,0.2 l -1.8,1.8 c 1.6,1.7 4.2,1.9 6,0.3 L 25,16.4 c 2,-1.9 3.9,-3.9 5.9,-5.9 C 31,10.4 31,10.3 31.1,10.2 30.3,9.4 29.5,8.6 28.7,7.8 27,6.2 24.4,6.2 22.7,7.8 22.6,7.9 22.5,8 22.4,8.1 Z m 2.7,19.7 C 23.6,26.1 21,25.9 19.2,27.4 v 0 c -1.3,1.2 -2.5,2.4 -3.7,3.6 -0.9,0.9 -1.7,1.7 -2.6,2.6 0.9,0.9 1.8,1.9 2.7,2.8 0.9,0.8 2.2,1.2 3.4,0.9 1,-0.1 1.8,-0.6 2.5,-1.4 -0.6,-0.5 -1.1,-1 -1.6,-1.6 -0.1,-0.1 -0.1,-0.1 -0.2,-0.2 -1.4,1 -2.3,0.8 -3.2,-0.5 1.4,-1.4 2.8,-2.8 4.3,-4.3 0.4,-0.4 1,-0.5 1.5,-0.4 0.4,0.1 0.7,0.3 1,0.6 z m 2.4,5.9 C 26.3,35.2 25.2,35.3 24,34 23,32.9 22,31.9 20.9,30.9 20.8,30.8 20.7,30.7 20.6,30.6 L 19,32.2 c 1.4,1.5 2.7,3 4.2,4.4 1.4,1.1 3.3,1.2 4.7,0.2 1.1,-0.9 2.2,-1.9 3.2,-2.9 l -3.2,-3.1 -1.8,1.8 z m -2.4,-22 C 23.7,10.3 22.4,8.9 21,7.6 19.6,6.3 17.4,6.2 15.9,7.4 c -1.1,0.8 -2,1.9 -3,2.8 l 3.2,3.2 1.8,-1.8 C 17.7,11.4 17.5,11.2 17.2,11 16.9,10.8 16.7,10.6 16.3,10.4 16.6,10.1 16.8,10 16.9,9.9 17.5,9.2 18.6,9 19.3,9.6 c 0.1,0.1 0.2,0.2 0.3,0.3 0.4,0.4 0.8,0.8 1.2,1.2 l 2.4,2.4 z m 7.2,13.4 c 1.5,-1.4 3,-2.7 4.3,-4.2 1.3,-1.5 1.3,-3.8 0,-5.3 -0.9,-1 -1.8,-1.8 -2.7,-2.6 l -3.1,3.1 1.8,1.8 1.3,-1.4 c 0.2,0.2 0.3,0.4 0.4,0.5 0.7,0.6 0.9,1.6 0.3,2.3 -0.1,0.1 -0.2,0.2 -0.3,0.3 -0.4,0.4 -0.8,0.8 -1.2,1.2 l -2.5,2.5 c 0.1,0.1 0.1,0.2 0.2,0.2 0.5,0.6 1,1.1 1.5,1.6 z M 10.2,27.5 C 10,27.3 9.9,27.1 9.7,27 8.9,26.5 8.8,25.4 9.3,24.6 c 0.1,-0.2 0.2,-0.3 0.4,-0.4 0.9,-0.9 1.8,-1.8 2.7,-2.6 0.3,-0.3 0.7,-0.6 0.9,-0.9 L 11.4,18.9 C 10.2,20.1 8.9,21.4 7.6,22.6 6.3,24 6,26.2 7.2,27.8 8.1,28.9 9,30 10.1,31 l 3.1,-3.1 -1.8,-1.7 z m 7.5,0.4 -5.3,-5.3 -1.7,1.6 5.4,5.3 z m 6.5,5.3 5.4,-5.4 -1.6,-1.6 -5.4,5.4 z m -4.4,-22.4 -5.5,5.4 1.6,1.6 5.5,-5.4 z m 6.4,5.3 5.3,5.3 1.6,-1.6 -5.3,-5.3 z"
   id="path4"
   style="fill:url(#linearGradient871);fill-opacity:1" />
</svg>