<?xml version="1.0" encoding="utf-8"?>
<!-- Generator: Adobe Illustrator 14.0.0, SVG Export Plug-In . SVG Version: 6.00 Build 43363)  -->
<!DOCTYPE svg PUBLIC "-//W3C//DTD SVG 1.1//EN" "http://www.w3.org/Graphics/SVG/1.1/DTD/svg11.dtd">
<svg version="1.1" id="Calque_1" xmlns="http://www.w3.org/2000/svg" xmlns:xlink="http://www.w3.org/1999/xlink" x="0px" y="0px"
     width="353px" height="342px" viewBox="0 0 353 342" enable-background="new 0 0 353 342" xml:space="preserve">
<g>
	<path fill="#00579d" d="M159.093,235.369h19.976c11.73,0,18.881-4.379,21.359-17.768l2.912-15.709
		c3.1-16.731-2.604-21.883-18.457-21.883l-15.534,0.002L159.093,235.369z"/>
  <path fill="#00579d" d="M176.5,33.763C100.706,33.763,39.263,95.206,39.263,171c0,3.894,0.171,7.746,0.489,11.558H86.55
		l6.072-28.328l46.622,0.032l13.599-73.386h52.63c36.144,0,49.151,13.649,43.998,41.458l-1.191,6.438
		c-3.439,18.539-12.562,30.122-29.188,36.043l-0.098,0.519c17.609,5.921,22.422,19.313,18.891,38.365l-2.719,14.676
		c-5.154,27.811-25.996,42.746-60.87,42.746h-54.851l15.026-81.089h-15.542l-6.069,25.803L39.752,182.56
		C45.624,252.943,104.6,308.237,176.5,308.237c75.794,0,137.236-61.442,137.236-137.236S252.294,33.763,176.5,33.763z"/>
  <path fill="#00579d" d="M212.204,135.208l1.862-10.042c2.386-12.872-1.953-18.538-14.317-18.538l-16.802-0.001l-8.826,47.636
		h13.632C200.749,154.263,209.531,149.627,212.204,135.208z"/>
</g>
</svg>
