<svg xmlns="http://www.w3.org/2000/svg" viewBox="0 0 1681.26 393.34"><defs><style>.cls-1{fill:#fff;}</style></defs><g id="Ebene_2" data-name="Ebene 2"><g id="Ebene_1-2" data-name="Ebene 1"><g id="Amazing_Business_Ideas" data-name="Amazing Business Ideas"><g id="Gruppe_9136" data-name="Gruppe 9136"><path id="Pfad_17961" data-name="Pfad 17961" class="cls-1" d="M569.78,283.86a116.3,116.3,0,0,1-38.48-18.08l17-37.72a115.09,115.09,0,0,0,33.07,16.39,124.21,124.21,0,0,0,38.33,6.19q21.33,0,31.53-6.34a19.14,19.14,0,0,0,10.2-16.84,16.12,16.12,0,0,0-6-12.83A45.77,45.77,0,0,0,640,206.44q-9.44-3.1-25.51-6.8A353.58,353.58,0,0,1,574,187.89,65.83,65.83,0,0,1,546.9,169a50.93,50.93,0,0,1-11.29-34.62,60.23,60.23,0,0,1,10.2-34.15A68.59,68.59,0,0,1,576.57,76a125.52,125.52,0,0,1,50.23-9,166.46,166.46,0,0,1,40.5,5,119.59,119.59,0,0,1,34.62,14.21l-15.45,38a120.64,120.64,0,0,0-60-17q-21,0-31.06,6.81a20.72,20.72,0,0,0-10,17.93A17.53,17.53,0,0,0,597,148.48a182,182,0,0,0,35.39,10.67,351.73,351.73,0,0,1,40.5,11.75,67,67,0,0,1,27,18.55q11.28,12.68,11.28,34.3a59.12,59.12,0,0,1-10.35,33.86,69.54,69.54,0,0,1-31.07,24.25,126.46,126.46,0,0,1-50.39,9A177.58,177.58,0,0,1,569.78,283.86Z"/><path id="Pfad_17962" data-name="Pfad 17962" class="cls-1" d="M729.13,89.88a25,25,0,0,1-8.33-19.16,25.07,25.07,0,0,1,8.33-19.17,30.64,30.64,0,0,1,21.65-7.74,31.36,31.36,0,0,1,21.64,7.42,23.76,23.76,0,0,1,8.34,18.55,26.27,26.27,0,0,1-8.34,19.94,30.23,30.23,0,0,1-21.64,7.88A30.6,30.6,0,0,1,729.13,89.88Zm-2.46,30.92h48.22V287.11H726.67Z"/><path id="Pfad_17963" data-name="Pfad 17963" class="cls-1" d="M975.82,120.8V259.29q0,45.73-23.8,68t-69.56,22.26a174.44,174.44,0,0,1-45.75-5.87,100.2,100.2,0,0,1-35.86-17L820,292.06a78.89,78.89,0,0,0,26.58,13.76,105.69,105.69,0,0,0,32.15,5.1q25,0,36.94-11.28t11.9-34.16v-7.12Q908.75,279.09,875,279.08a88.33,88.33,0,0,1-41.88-10A76.49,76.49,0,0,1,803,240.75a79.05,79.05,0,0,1-11.12-42,79.05,79.05,0,0,1,11.12-42,76.69,76.69,0,0,1,30.15-28.29,88.36,88.36,0,0,1,41.88-10q36.18,0,55,23.8V120.81ZM916,228.22a38.29,38.29,0,0,0,12.21-29.52A38.33,38.33,0,0,0,916,169.17a44.47,44.47,0,0,0-31.38-11.28,45,45,0,0,0-31.53,11.28,38.07,38.07,0,0,0-12.36,29.53,38.05,38.05,0,0,0,12.36,29.52,45,45,0,0,0,31.53,11.28A44.4,44.4,0,0,0,916,228.22Z"/><path id="Pfad_17964" data-name="Pfad 17964" class="cls-1" d="M1156.2,136.87q19,18.56,19,55v95.23H1127v-87.8q0-19.79-8.65-29.53a31.76,31.76,0,0,0-25-9.73,38.37,38.37,0,0,0-29.06,11.28q-10.85,11.28-10.82,33.54v82.24H1005.2V120.8h46.07v19.48a64,64,0,0,1,23.8-16.24,83.14,83.14,0,0,1,31.22-5.71Q1137.19,118.33,1156.2,136.87Z"/><path id="Pfad_17965" data-name="Pfad 17965" class="cls-1" d="M1370.89,120.8V287.11h-45.75V267.33a64.07,64.07,0,0,1-22.88,16.53,71.86,71.86,0,0,1-28.75,5.72q-32.77,0-51.93-18.86t-19.17-56v-94h48.23v86.87q0,40.18,33.68,40.19a36.25,36.25,0,0,0,27.82-11.26q10.5-11.29,10.51-33.56V120.81Z"/><path id="Pfad_17966" data-name="Pfad 17966" class="cls-1" d="M1662.87,136.71q18.38,18.4,18.39,55.19v95.23H1633v-87.8q0-19.79-8.2-29.53a28.77,28.77,0,0,0-23.33-9.73,34.45,34.45,0,0,0-26.9,11q-9.88,11-9.89,32.61v83.47H1516.5V199.33q0-39.26-31.54-39.26a34.06,34.06,0,0,0-26.58,11q-9.9,11-9.89,32.61v83.47h-48.23V120.8h46.07V140a60.92,60.92,0,0,1,22.72-16.09,76.54,76.54,0,0,1,29.52-5.55,71.52,71.52,0,0,1,31.84,7,56.42,56.42,0,0,1,22.88,20.24,68.34,68.34,0,0,1,25.81-20.09,81.52,81.52,0,0,1,34.16-7.11Q1644.48,118.32,1662.87,136.71Z"/></g></g><path class="cls-1" d="M196.67,0C88.05,0,0,88.05,0,196.67S88.05,393.34,196.67,393.34s196.67-88,196.67-196.67S305.29,0,196.67,0Zm12.65,62a28.71,28.71,0,0,1,40.55,0l29.52,29.52-32.92,32.92L217,154a28.7,28.7,0,0,1-40.55,0l-8.12-8.12,15.49-15.49,8.11,8.12a6.78,6.78,0,0,0,9.58,0l47-47-14-14a6.78,6.78,0,0,0-9.58,0l-6.72,6.72L202.59,68.72Zm43.07,68.37,44.9,44.89L281.8,190.75l-44.9-44.9ZM145.85,156.44,130.37,141l44.89-44.9,15.49,15.49ZM143.47,62A28.72,28.72,0,0,1,184,62l41,41-15.49,15.48-41-41a6.78,6.78,0,0,0-9.58,0l-14,14L156.44,103,141,118.52l-27-27ZM62,143.47,91.52,114,154,176.39A28.72,28.72,0,0,1,154,217l-8.11,8.11-15.48-15.49,8.11-8.11a6.78,6.78,0,0,0,0-9.58l-47-46.95-14,14a6.78,6.78,0,0,0,0,9.58l6.72,6.72L68.72,190.75,62,184A28.72,28.72,0,0,1,62,143.47Zm94.44,104L141,263l-44.9-44.9,15.49-15.49ZM62,249.87a28.71,28.71,0,0,1,0-40.55l41-41,15.48,15.49-41,41a6.78,6.78,0,0,0,0,9.58l14,14L103,236.9l15.48,15.49-27,27Zm122,81.47a28.72,28.72,0,0,1-40.56,0L114,301.82l62.45-62.44a28.71,28.71,0,0,1,40.55,0l8.11,8.11L209.57,263l-8.11-8.11a6.78,6.78,0,0,0-9.58,0l-46.95,46.95,14,14a6.78,6.78,0,0,0,9.58,0l6.72-6.73,15.49,15.49Zm63.46-94.44L263,252.39l-44.9,44.9L202.59,281.8Zm2.38,94.44a28.7,28.7,0,0,1-40.55,0l-41-41,15.49-15.49,41,41a6.78,6.78,0,0,0,9.58,0l14-14L236.9,290.31l15.49-15.49,27,27Zm81.47-81.47-29.52,29.52L239.38,217a28.71,28.71,0,0,1,0-40.55l8.11-8.11L263,183.77l-8.11,8.11a6.78,6.78,0,0,0,0,9.58l47,47,14-14a6.76,6.76,0,0,0,0-9.57l-6.72-6.73,15.49-15.49,6.72,6.73A28.7,28.7,0,0,1,331.34,249.87Zm0-65.84-41,41-15.49-15.49,41-41a6.77,6.77,0,0,0,0-9.58l-14-14-11.51,11.51L274.82,141l27-27,29.52,29.52A28.72,28.72,0,0,1,331.34,184Z"/></g></g></svg>