<svg xmlns="http://www.w3.org/2000/svg" viewBox="0 0 1149.97 795.54"><defs><style>.cls-1{fill:#fff;}</style></defs><g id="Ebene_2" data-name="Ebene 2"><g id="Ebene_1-2" data-name="Ebene 1"><g id="Amazing_Business_Ideas" data-name="Amazing Business Ideas"><g id="Gruppe_9136" data-name="Gruppe 9136"><path id="Pfad_17961" data-name="Pfad 17961" class="cls-1" d="M38.49,729.84A116.34,116.34,0,0,1,0,711.76L17,674a115,115,0,0,0,33.08,16.39,124.1,124.1,0,0,0,38.32,6.19q21.33,0,31.53-6.34a19.13,19.13,0,0,0,10.2-16.84,16.09,16.09,0,0,0-6-12.83,45.58,45.58,0,0,0-15.46-8.19q-9.42-3.1-25.5-6.8a353.74,353.74,0,0,1-40.5-11.75A65.83,65.83,0,0,1,15.6,615,50.87,50.87,0,0,1,4.32,580.39a60.15,60.15,0,0,1,10.2-34.15A68.48,68.48,0,0,1,45.28,522a125.49,125.49,0,0,1,50.23-9,166.58,166.58,0,0,1,40.5,5,119.82,119.82,0,0,1,34.62,14.21l-15.46,38a120.6,120.6,0,0,0-60-17q-21,0-31.07,6.81a20.72,20.72,0,0,0-10,17.93,17.53,17.53,0,0,0,11.59,16.53,182.33,182.33,0,0,0,35.4,10.67,351.57,351.57,0,0,1,40.49,11.75,67.08,67.08,0,0,1,27.06,18.55q11.28,12.68,11.28,34.3a59.19,59.19,0,0,1-10.35,33.86,69.63,69.63,0,0,1-31.08,24.25,126.41,126.41,0,0,1-50.38,9A177.48,177.48,0,0,1,38.49,729.84Z"/><path id="Pfad_17962" data-name="Pfad 17962" class="cls-1" d="M197.84,535.86a26.19,26.19,0,0,1,0-38.33,30.62,30.62,0,0,1,21.64-7.74,31.36,31.36,0,0,1,21.64,7.42,23.8,23.8,0,0,1,8.35,18.55,26.24,26.24,0,0,1-8.35,19.94,30.23,30.23,0,0,1-21.64,7.88A30.57,30.57,0,0,1,197.84,535.86Zm-2.47,30.92H243.6V733.09H195.37Z"/><path id="Pfad_17963" data-name="Pfad 17963" class="cls-1" d="M444.52,566.78V705.27q0,45.74-23.8,68t-69.55,22.26a174.39,174.39,0,0,1-45.75-5.87,100.12,100.12,0,0,1-35.86-17l19.16-34.62a79.1,79.1,0,0,0,26.59,13.75,105.63,105.63,0,0,0,32.14,5.1q25.05,0,36.95-11.28t11.9-34.16v-7.12q-18.85,20.73-52.55,20.72a88.37,88.37,0,0,1-41.89-10,76.53,76.53,0,0,1-30.14-28.29,85,85,0,0,1,0-84.08,76.66,76.66,0,0,1,30.14-28.29,88.37,88.37,0,0,1,41.89-10q36.17,0,55,23.8V566.79ZM384.71,674.2a41.83,41.83,0,0,0,0-59.05,44.47,44.47,0,0,0-31.38-11.28,45,45,0,0,0-31.54,11.28,41.44,41.44,0,0,0,0,59.05,45,45,0,0,0,31.54,11.28,44.42,44.42,0,0,0,31.38-11.28Z"/><path id="Pfad_17964" data-name="Pfad 17964" class="cls-1" d="M624.91,582.85q19,18.55,19,55v95.23H595.69v-87.8q0-19.78-8.66-29.53a31.74,31.74,0,0,0-25-9.73,38.4,38.4,0,0,0-29.06,11.28q-10.83,11.28-10.82,33.54v82.24h-48.2V566.78H520v19.48A64,64,0,0,1,543.78,570,83.11,83.11,0,0,1,575,564.31Q605.89,564.31,624.91,582.85Z"/><path id="Pfad_17965" data-name="Pfad 17965" class="cls-1" d="M839.6,566.78V733.09H793.84V713.31A64,64,0,0,1,771,729.84a71.89,71.89,0,0,1-28.75,5.72q-32.78,0-51.94-18.86t-19.16-56v-94h48.22v86.87q0,40.18,33.68,40.19a36.26,36.26,0,0,0,27.83-11.26q10.5-11.3,10.51-33.56V566.79Z"/><path id="Pfad_17966" data-name="Pfad 17966" class="cls-1" d="M1131.57,582.69q18.39,18.4,18.4,55.19v95.23h-48.23v-87.8q0-19.78-8.19-29.53a28.78,28.78,0,0,0-23.34-9.73,34.44,34.44,0,0,0-26.89,11q-9.9,11-9.89,32.61V733.1H985.2V645.31q0-39.25-31.53-39.26a34.07,34.07,0,0,0-26.59,11q-9.89,11-9.89,32.61V733.1H869V566.78H915V586a61,61,0,0,1,22.73-16.09,76.54,76.54,0,0,1,29.52-5.55,71.55,71.55,0,0,1,31.84,7A56.39,56.39,0,0,1,1022,591.52a68.42,68.42,0,0,1,25.81-20.09,81.55,81.55,0,0,1,34.16-7.11Q1113.19,564.3,1131.57,582.69Z"/></g></g><path class="cls-1" d="M558.91,0C450.29,0,362.24,88.05,362.24,196.67s88.05,196.67,196.67,196.67,196.67-88,196.67-196.67S667.53,0,558.91,0ZM693.58,143.47a28.72,28.72,0,0,1,0,40.56l-41,41-15.49-15.49,41-41a6.78,6.78,0,0,0,0-9.58l-14-14-11.51,11.51L637.06,141l27-27Zm-94.44,2.38,15.49-15.48,44.9,44.89L644,190.75ZM571.56,62a28.71,28.71,0,0,1,40.55,0l29.52,29.52-32.92,32.92L579.19,154a28.7,28.7,0,0,1-40.55,0l-8.12-8.12L546,130.36l8.11,8.12a6.78,6.78,0,0,0,9.58,0l47-47-14-14a6.78,6.78,0,0,0-9.58,0l-6.72,6.72L564.83,68.72Zm-63.47,94.44L492.61,141l44.89-44.9L553,111.54ZM505.71,62a28.72,28.72,0,0,1,40.56,0l41,41-15.49,15.48-41-41a6.78,6.78,0,0,0-9.58,0l-14,14L518.68,103l-15.49,15.49-27-27Zm-81.47,81.47L453.76,114l62.45,62.44a28.71,28.71,0,0,1,0,40.56l-8.11,8.11-15.48-15.49,8.11-8.11a6.78,6.78,0,0,0,0-9.58l-47-46.95-14,14a6.78,6.78,0,0,0,0,9.58l6.72,6.72L431,190.75,424.24,184A28.72,28.72,0,0,1,424.24,143.47Zm94.44,104L503.2,263l-44.91-44.9,15.49-15.49Zm-94.44,2.38a28.71,28.71,0,0,1,0-40.55l41-41,15.48,15.49-41,41a6.78,6.78,0,0,0,0,9.58l14,14,11.52-11.52,15.48,15.49-27,27Zm122,81.47a28.72,28.72,0,0,1-40.56,0l-29.52-29.52,62.45-62.44a28.71,28.71,0,0,1,40.55,0l8.11,8.11L571.81,263l-8.11-8.11a6.78,6.78,0,0,0-9.58,0l-46.95,46.95,14,14a6.78,6.78,0,0,0,9.58,0l6.72-6.73L553,324.62Zm63.46-94.44,15.49,15.49-44.9,44.9L564.83,281.8Zm2.38,94.44a28.7,28.7,0,0,1-40.55,0l-41-41L546,274.82l41,41a6.77,6.77,0,0,0,9.57,0l14-14-11.52-11.51,15.49-15.49,27,27Zm81.48-81.47-29.53,29.52L601.62,217a28.71,28.71,0,0,1,0-40.55l8.11-8.11,15.49,15.48-8.11,8.11a6.78,6.78,0,0,0,0,9.58l47,47,14-14a6.78,6.78,0,0,0,0-9.58l-6.73-6.72,15.49-15.49,6.72,6.73A28.71,28.71,0,0,1,693.59,249.87Z"/></g></g></svg>