<svg xmlns="http://www.w3.org/2000/svg" width="225.664" height="57.502" viewBox="0 0 225.664 57.502"><defs><style>.a{fill:#fff;}.b{isolation:isolate;}</style></defs><g transform="translate(894.301 258.951)"><path class="a" d="M-836.34-230.712a28.848,28.848,0,0,1-28.094,29.246,28.9,28.9,0,0,1-29.859-27.9,28.9,28.9,0,0,1,28.209-29.576q.2,0,.408-.006A28.9,28.9,0,0,1-836.34-230.712Zm-36.858,4.655a5.359,5.359,0,0,0,.761-7.541c-.062-.075-.125-.149-.191-.22-2.328-2.476-4.795-4.823-7.2-7.23-.369-.37-.717-.76-.987-1.047a51.491,51.491,0,0,0-3.862,3.7,5.354,5.354,0,0,0,.683,7.525l2.336-2.307c-1.261-1.7-1.069-2.916.712-4.147q2.952,2.921,5.909,5.856a1.2,1.2,0,0,1,.189.371,2.3,2.3,0,0,1-.656,2.71Zm23.507,2.96c-1.937-1.918-3.9-3.82-5.8-5.776a1.813,1.813,0,0,1-.463-1.292,9.94,9.94,0,0,1,.615-1.959l-2.238-2.219c-.047.042-.14.116-.223.2a5.556,5.556,0,0,0,.019,7.857c.075.074.152.147.23.217,2.472,2.478,4.967,4.935,7.454,7.4.129.128.279.235.388.325,1.224-1.187,2.453-2.3,3.575-3.507a5.4,5.4,0,0,0,1.046-1.851,5.215,5.215,0,0,0-1.64-5.808l-2.287,2.284c1.274,1.782,1.143,2.651-.676,4.13ZM-864.8-248.578c.441.406.857.767,1.248,1.154s.743.783,1.1,1.165c1.731-1.483,2.881-1.316,4.319.548-.156.166-.312.342-.479.507q-2.344,2.331-4.693,4.658c-1.431,1.419-2.31,1.467-3.767.275l-2.409,2.316a5.586,5.586,0,0,0,7.887.453c.064-.057.127-.115.188-.175,2.616-2.568,5.208-5.16,7.809-7.743.1-.1.178-.212.3-.36-1.094-1.083-2.161-2.146-3.234-3.2a5.594,5.594,0,0,0-7.911.006c-.125.126-.245.257-.358.4Zm3.615,26.115a5.5,5.5,0,0,0-7.758-.559l-.059.052c-1.677,1.54-3.257,3.184-4.879,4.784-1.159,1.143-2.314,2.291-3.421,3.386,1.225,1.255,2.359,2.528,3.613,3.671a5.243,5.243,0,0,0,4.52,1.194,5.252,5.252,0,0,0,3.266-1.843c-.731-.716-1.415-1.387-2.1-2.056-.084-.082-.178-.154-.262-.227-1.8,1.274-3.045,1.058-4.2-.713,1.88-1.878,3.754-3.766,5.648-5.631a1.979,1.979,0,0,1,2.012-.489,6.306,6.306,0,0,1,1.309.729Zm3.09,7.683c-1.528,2.016-3.025,2.07-4.594.367-1.3-1.409-2.708-2.715-4.072-4.063-.145-.143-.31-.266-.405-.347l-2.177,2.134c1.829,1.921,3.576,3.972,5.555,5.77a5.1,5.1,0,0,0,6.254.2,54.26,54.26,0,0,0,4.2-3.848l-4.226-4.158-2.327,2.317Zm-3.1-29.109c-1.8-1.8-3.538-3.69-5.429-5.413a5.3,5.3,0,0,0-6.73-.261c-1.44,1.125-2.686,2.5-3.919,3.661l4.228,4.187,2.317-2.318c-.274-.248-.583-.549-.916-.822s-.682-.509-1.137-.845c.443-.359.661-.512.851-.693a2.25,2.25,0,0,1,3.163-.352,2.193,2.193,0,0,1,.37.376q.819.807,1.632,1.62l3.207,3.195Zm9.49,17.824c1.973-1.891,3.946-3.586,5.677-5.5a5.247,5.247,0,0,0-.022-6.969c-1.135-1.26-2.422-2.385-3.555-3.486l-4.1,4.088,2.328,2.407,1.771-1.916c.214.245.391.473.594.676a2.2,2.2,0,0,1,.417,3.083,2.195,2.195,0,0,1-.417.417c-.522.529-1.054,1.049-1.582,1.572l-3.331,3.3c.121.145.189.238.269.321.665.685,1.332,1.376,1.945,2.006Zm-29.26,3.117c-.251-.29-.4-.481-.566-.65-1.258-1.27-1.263-2.4-.008-3.653q1.758-1.747,3.52-3.489c.437-.43.895-.836,1.238-1.156l-2.459-2.423c-1.612,1.607-3.292,3.279-4.968,4.954a5.3,5.3,0,0,0-.742,6.875,46.179,46.179,0,0,0,3.84,4.145l4.162-4.132-2.347-2.316Zm10.02.594-7.059-7-2.212,2.118,7.1,7.05Zm8.513,6.959,7.187-7.119-2.17-2.167-7.173,7.115Zm-5.78-29.585-7.216,7.157,2.125,2.125,7.223-7.16Zm8.467,6.952,7.077,7,2.163-2.158-7.068-7.016Z"/><g class="b"><g class="b"><path class="a" d="M-816.051-215.885a15.434,15.434,0,0,1-5.1-2.4l2.255-5a15.281,15.281,0,0,0,4.387,2.173,16.5,16.5,0,0,0,5.084.82,8.115,8.115,0,0,0,4.182-.841,2.539,2.539,0,0,0,1.353-2.234,2.135,2.135,0,0,0-.8-1.7,6.045,6.045,0,0,0-2.05-1.087q-1.251-.409-3.383-.9a46.733,46.733,0,0,1-5.371-1.558,8.717,8.717,0,0,1-3.587-2.5,6.753,6.753,0,0,1-1.5-4.592,7.985,7.985,0,0,1,1.353-4.53,9.1,9.1,0,0,1,4.08-3.219,16.635,16.635,0,0,1,6.662-1.19,22.078,22.078,0,0,1,5.371.657,15.889,15.889,0,0,1,4.592,1.885l-2.05,5.043a16.006,16.006,0,0,0-7.954-2.255,7.456,7.456,0,0,0-4.12.9,2.75,2.75,0,0,0-1.332,2.378,2.323,2.323,0,0,0,1.537,2.193,24.1,24.1,0,0,0,4.694,1.415,46.936,46.936,0,0,1,5.371,1.558,8.9,8.9,0,0,1,3.588,2.46,6.6,6.6,0,0,1,1.5,4.55,7.846,7.846,0,0,1-1.373,4.491,9.226,9.226,0,0,1-4.121,3.217,16.79,16.79,0,0,1-6.683,1.19A23.476,23.476,0,0,1-816.051-215.885Z"/><path class="a" d="M-794.917-241.612a3.327,3.327,0,0,1-1.106-2.542,3.327,3.327,0,0,1,1.106-2.542,4.061,4.061,0,0,1,2.871-1.025,4.156,4.156,0,0,1,2.87.984,3.155,3.155,0,0,1,1.107,2.46,3.48,3.48,0,0,1-1.107,2.644,4.012,4.012,0,0,1-2.87,1.046A4.061,4.061,0,0,1-794.917-241.612Zm-.327,4.1h6.4v22.058h-6.4Z"/><path class="a" d="M-762.2-237.512v18.367q0,6.067-3.157,9.021t-9.225,2.952a23.125,23.125,0,0,1-6.068-.779,13.27,13.27,0,0,1-4.756-2.255l2.542-4.592a10.466,10.466,0,0,0,3.526,1.824,14.03,14.03,0,0,0,4.264.677,6.916,6.916,0,0,0,4.9-1.5,5.968,5.968,0,0,0,1.578-4.53v-.944a8.947,8.947,0,0,1-6.97,2.747,11.694,11.694,0,0,1-5.555-1.332,10.139,10.139,0,0,1-4-3.752,10.483,10.483,0,0,1-1.476-5.575,10.492,10.492,0,0,1,1.476-5.576,10.167,10.167,0,0,1,4-3.752,11.705,11.705,0,0,1,5.555-1.332,8.756,8.756,0,0,1,7.3,3.157v-2.829Zm-7.933,14.247a5.083,5.083,0,0,0,1.619-3.915,5.085,5.085,0,0,0-1.619-3.916,5.894,5.894,0,0,0-4.162-1.5,5.966,5.966,0,0,0-4.182,1.5,5.054,5.054,0,0,0-1.64,3.916,5.052,5.052,0,0,0,1.64,3.915,5.962,5.962,0,0,0,4.182,1.5A5.89,5.89,0,0,0-770.132-223.265Z"/><path class="a" d="M-738.275-235.38q2.522,2.46,2.521,7.3v12.628h-6.4V-227.1a5.756,5.756,0,0,0-1.148-3.916,4.209,4.209,0,0,0-3.321-1.291,5.091,5.091,0,0,0-3.854,1.5,6.2,6.2,0,0,0-1.435,4.449v10.906h-6.4v-22.058h6.109v2.583a8.491,8.491,0,0,1,3.157-2.153,11.012,11.012,0,0,1,4.141-.758A9.077,9.077,0,0,1-738.275-235.38Z"/><path class="a" d="M-709.8-237.512v22.058h-6.068v-2.624a8.478,8.478,0,0,1-3.034,2.193,9.544,9.544,0,0,1-3.813.759,9.394,9.394,0,0,1-6.888-2.5q-2.543-2.5-2.542-7.421v-12.464h6.4v11.521q0,5.329,4.469,5.33a4.8,4.8,0,0,0,3.69-1.5,6.318,6.318,0,0,0,1.394-4.45v-10.9Z"/><path class="a" d="M-671.076-235.4q2.438,2.439,2.439,7.319v12.628h-6.4V-227.1a5.982,5.982,0,0,0-1.087-3.916,3.819,3.819,0,0,0-3.1-1.291,4.566,4.566,0,0,0-3.567,1.455,6.274,6.274,0,0,0-1.312,4.325v11.071h-6.4V-227.1q0-5.206-4.182-5.207a4.517,4.517,0,0,0-3.526,1.455,6.274,6.274,0,0,0-1.312,4.325v11.071h-6.4v-22.058h6.109v2.542a8.081,8.081,0,0,1,3.014-2.133,10.157,10.157,0,0,1,3.915-.737,9.5,9.5,0,0,1,4.223.922,7.487,7.487,0,0,1,3.034,2.685,9.072,9.072,0,0,1,3.423-2.665,10.812,10.812,0,0,1,4.531-.942A8.9,8.9,0,0,1-671.076-235.4Z"/></g></g></g></svg>