<svg id="Layer_1" data-name="Layer 1" xmlns="http://www.w3.org/2000/svg" xmlns:xlink="http://www.w3.org/1999/xlink" viewBox="0 0 460 460"><defs><linearGradient id="linear-gradient" x1="140.83" y1="285.06" x2="352.58" y2="285.06" gradientUnits="userSpaceOnUse"><stop offset="0" stop-color="#1b94e9"/><stop offset="1" stop-color="#034e8b"/></linearGradient><linearGradient id="linear-gradient-2" x1="5.26" y1="229.71" x2="235.18" y2="229.71" xlink:href="#linear-gradient"/><linearGradient id="linear-gradient-3" x1="123.58" y1="432.82" x2="335.33" y2="432.82" gradientUnits="userSpaceOnUse"><stop offset="0" stop-color="#3f8fcd"/><stop offset="1" stop-color="#074f8a"/></linearGradient><linearGradient id="linear-gradient-4" x1="123.58" y1="434.26" x2="335.33" y2="434.26" xlink:href="#linear-gradient-3"/></defs><title>phoenix</title><circle cx="230" cy="230" r="230" fill="#fff"/><path d="M334,350.75c-4.52-17.83-14.67-30.93-32.13-46.18a.23.23,0,0,1-.07-.07h0c-17.51-15.28-49.95-37.6-49.95-37.6l-31.07-21.47a182,182,0,0,1,3.16-28c2.94-15.15,12.21-21.93,19.67-26.9s24.4-10.39,34.35-15.59S299.18,158,299.18,158s7.91-9.27,19.44-11.08,12.83,8.82,12.83,8.82,3-8.36-1.53-19.66-16.5-11.53-17.63-11.57-14.46-.86-24.86,5.69a21.07,21.07,0,0,1-20.34,1.13s-16.72-7.46-28-6.78-28,3.62-47,12.2-22.6,12.89-39.1,21-29.38,1.58-29.38,1.58,15.82,13.11,34.13,11.3,34.8-14.46,34.8-14.46c-2.26,1.81-4.75,6.78-4.75,6.78-6.78,4.52-20.11,23.28-20.11,23.28A89.88,89.88,0,0,0,155,227.35c-1.35,24.18,7.46,49.49,7.46,49.49a159.29,159.29,0,0,0,18,39.38c.5.78,1,1.55,1.53,2.32C195.67,338.77,219.18,360,219.18,360s19,20.34,15.59,35.48S223,417.87,202.68,426.68A156.62,156.62,0,0,1,168,436.62a216.45,216.45,0,0,0,124.07,0h0l.39-.12c1.5-.45,3-.92,4.47-1.4l.13-.05c1.54-.5,3.06-1,4.58-1.55l.49-.18c.88-.31,1.75-.64,2.63-1a75.56,75.56,0,0,0,25.38-33.91S338.51,368.6,334,350.75Z" fill="url(#linear-gradient)"/><path d="M115.44,194.7A128.3,128.3,0,0,1,171.81,22.81,215.5,215.5,0,0,0,66.46,90c-1.6,11.37-2.8,25.68-1.64,39.46,2.49,29.61,8,46.84,13.28,56.67A102.07,102.07,0,0,1,55,142.09,230.84,230.84,0,0,1,49.9,112a214.15,214.15,0,0,0-32,80.6c3.5,9.64,8.54,21.71,14.65,31.33,12.21,19.21,29.61,36.39,29.61,36.39s12.65,11.07,17,13.78c0,0-23.73-7.91-40.23-24.41a185.65,185.65,0,0,1-24-29.44c-.16,3.31-.24,6.63-.24,10A214.64,214.64,0,0,0,34.09,320c2.8,1.85,5.51,3.35,7.68,4.55,6.1,3.39,34.35,13.11,35.93,13.79s34.58,9.94,47,12.2c0,0-24.41,1.13-43.17-2.71-12.62-2.59-27.8-5.89-37.42-8.6A216,216,0,0,0,168,436.62a156.62,156.62,0,0,0,34.69-9.94c20.34-8.81,28.7-16,32.09-31.19S219.18,360,219.18,360,195.67,338.77,182,318.54a109.47,109.47,0,0,1-34.13-23.16c-15.82-16.05-27.91-39.21-33.67-67.46,0,0-1.24,40.34.68,53.44s6.33,27.12,8.36,31.87c0,0-13.22-20.9-18.31-39.66s-3.59-38.37.46-51.76C108.49,211.56,113.35,199.67,115.44,194.7Z" fill="url(#linear-gradient-2)"/><path d="M302.13,433.3l-.49.18Z" fill="#091f32"/><path d="M297.06,435l-.13.05Z" fill="#091f32"/><path d="M445.2,220.51a185.66,185.66,0,0,1-23.87,29.21c-16.5,16.5-40.23,24.41-40.23,24.41,4.3-2.71,16.95-13.78,16.95-13.78s17.41-17.18,29.61-36.39c6-9.52,11-21.43,14.54-31a214.21,214.21,0,0,0-32-80.7,231.61,231.61,0,0,1-5.12,29.85,102,102,0,0,1-23.06,44.07c5.26-9.83,10.8-27.06,13.28-56.67,1.15-13.68,0-27.9-1.61-39.23A215.52,215.52,0,0,0,288.2,22.81a128.3,128.3,0,0,1,56.44,171.72c2.05,4.86,7,16.91,10.14,27.28,4,13.39,5.53,33,.45,51.76s-18.31,39.66-18.31,39.66c2-4.75,6.44-18.76,8.36-31.87s.68-53.44.68-53.44c-5.76,28.25-17.85,51.41-33.67,67.46a103.77,103.77,0,0,1-10.43,9.19c17.46,15.25,27.61,28.35,32.13,46.18s-3.85,47.68-3.85,47.68a75.56,75.56,0,0,1-25.38,33.91,216.06,216.06,0,0,0,111.08-93.08c-9.62,2.7-24.68,6-37.22,8.55-18.76,3.84-43.17,2.71-43.17,2.71,12.43-2.26,45.43-11.53,47-12.2s29.83-10.4,35.93-13.79c2.11-1.17,4.73-2.62,7.45-4.4a214.65,214.65,0,0,0,19.59-89.87C445.43,227,445.35,223.75,445.2,220.51Z" fill="#001d35"/><path d="M304.7,432.38l.06,0c-.88.32-1.75.65-2.63,1C303,433,303.85,432.7,304.7,432.38Z" fill="url(#linear-gradient-3)"/><path d="M301.64,433.48c-1.52.53-3,1-4.58,1.55C298.6,434.53,300.12,434,301.64,433.48Z" fill="url(#linear-gradient-4)"/><path d="M219.18,360c-9.93-9.76-23.51-21.24-37.18-41.47-.52-.77-1-1.54-1.53-2.32h0a122.36,122.36,0,0,0,11.7,17.46c7.12,8.82,20.68,23.85,27.35,37.86s6,23.1,5.87,24.46A31.38,31.38,0,0,1,213,418c-11.36,8.47-18.89,10.65-22.38,11.86a146.44,146.44,0,0,1-23.33,6.52l.68.2a156.62,156.62,0,0,0,34.69-9.94c20.34-8.81,28.7-16,32.09-31.19S226.08,366.81,219.18,360Z" fill="#001d35"/><path d="M220.76,245.43l.4-7.33A99.31,99.31,0,0,1,190,203.79c-12.38-22.71-1.6-42-1.6-42-5.84,7.51-9.76,28.76.58,48.25S220.76,245.43,220.76,245.43Z" fill="#001d35"/></svg>