<svg xmlns="http://www.w3.org/2000/svg" viewBox="0 0 414.33 414.33"><defs><style>.cls-1{fill:#fff;}</style></defs><g id="Ebene_2" data-name="Ebene 2"><g id="Ebene_1-2" data-name="Ebene 1"><rect class="cls-1" x="89.32" y="213.48" width="31.72" height="91.96" transform="translate(-152.66 150.37) rotate(-45)"/><path class="cls-1" d="M132.23,54.89l20.32-20.32a9.83,9.83,0,0,1,13.87,0L225.85,94l22.43-22.43L188.85,12.14a41.57,41.57,0,0,0-58.72,0L87.38,54.89,126.48,94l22.43-22.42Z"/><path class="cls-1" d="M54.9,282.1,34.57,261.77a9.83,9.83,0,0,1,0-13.87L94,188.48,71.57,166.05,12.14,225.48a41.57,41.57,0,0,0,0,58.72L54.89,327,94,287.85,71.57,265.42Z"/><path class="cls-1" d="M247.9,34.57a9.82,9.82,0,0,1,13.87,0L282.09,54.9l-68,68a9.82,9.82,0,0,1-13.87,0l-11.75-11.75-22.43,22.43,11.75,11.75a41.58,41.58,0,0,0,58.73,0l42.75-42.75L327,54.89,284.2,12.15a41.57,41.57,0,0,0-58.73,0l-9.73,9.74,22.42,22.43Z"/><rect class="cls-1" x="108.89" y="89.32" width="91.95" height="31.72" transform="translate(-29.01 140.31) rotate(-45)"/><path class="cls-1" d="M359.43,132.23l20.32,20.33a9.8,9.8,0,0,1,0,13.86l-59.42,59.43,22.43,22.42,59.42-59.42a41.57,41.57,0,0,0,0-58.72L359.44,87.38l-39.1,39.1,22.42,22.42Z"/><rect class="cls-1" x="293.29" y="108.89" width="31.72" height="91.95" transform="translate(-18.96 263.96) rotate(-45)"/><path class="cls-1" d="M379.75,247.9a9.83,9.83,0,0,1,0,13.88L359.44,282.1l-68-68a9.81,9.81,0,0,1,0-13.87l11.74-11.75-22.42-22.42L269,177.8a41.58,41.58,0,0,0,0,58.73L359.43,327l42.75-42.75a41.57,41.57,0,0,0,0-58.73l-9.74-9.73L370,238.16Z"/><path class="cls-1" d="M34.57,166.42a9.83,9.83,0,0,1,0-13.87l20.32-20.32,68,68a9.81,9.81,0,0,1,0,13.87l-11.75,11.75,22.43,22.42,11.75-11.74a41.58,41.58,0,0,0,0-58.73L54.9,87.38,12.15,130.13a41.56,41.56,0,0,0,0,58.72l9.74,9.74,22.43-22.43Z"/><rect class="cls-1" x="213.48" y="293.29" width="91.95" height="31.72" transform="translate(-142.6 274.01) rotate(-45)"/><path class="cls-1" d="M282.1,359.44l-20.33,20.32a9.82,9.82,0,0,1-13.87,0l-59.42-59.42-22.43,22.43,59.42,59.42a41.57,41.57,0,0,0,58.73,0L327,359.43l-39.1-39.1-22.43,22.43Z"/><path class="cls-1" d="M166.42,379.76a9.82,9.82,0,0,1-13.87,0l-20.32-20.32,68-68a9.81,9.81,0,0,1,13.87,0l11.75,11.74,22.43-22.42L236.53,269a41.58,41.58,0,0,0-58.73,0L87.38,359.44l42.74,42.74a41.58,41.58,0,0,0,58.73,0l9.74-9.74L176.16,370Z"/></g></g></svg>